# xmcd
#
# Track frame offsets: 
#        150
#        19681
#        38309
#        56124
#        75322
#        96380
#        118362
#        142136
#        159209
#        175437
#
# Disc length: 2615 seconds
#
# Revision: 2
# Processed by: cddbd v1.5.2PL0 Copyright (c) Steve Scherf et al.
# Submitted via: ExactAudioCopy v0.95a5
#
DISCID=7e0a350a
DTITLE=David Benoit - k-Full Circle
DYEAR=2005
DGENRE=Fusion
TTITLE0=Cafe Rio
TTITLE1=First Day Of School
TTITLE2=Water To Drink (Agua De Beber)
TTITLE3=Beat Street
TTITLE4=Six PM
TTITLE5=Chasing The Tides
TTITLE6=Neat With A Twist
TTITLE7=Katrina's Little Bear
TTITLE8=Yusuke The Ghost
TTITLE9=Monster In The Attic
EXTD=YEAR: 2006
EXTT0=
EXTT1=
EXTT2=
EXTT3=
EXTT4=
EXTT5=
EXTT6=
EXTT7=
EXTT8=
EXTT9=
PLAYORDER=
